<?xml version="1.0" encoding="utf-8"?>
<!-- Generator: Adobe Illustrator 16.0.0, SVG Export Plug-In . SVG Version: 6.00 Build 0)  -->
<!DOCTYPE svg PUBLIC "-//W3C//DTD SVG 1.1//EN" "http://www.w3.org/Graphics/SVG/1.1/DTD/svg11.dtd">
<svg version="1.1" id="pig" xmlns="http://www.w3.org/2000/svg" xmlns:xlink="http://www.w3.org/1999/xlink" x="0px" y="0px"
	 width="256px" height="256px" viewBox="0 0 190 210" enable-background="new 0 0 190 210" xml:space="preserve">
<path fill-rule="evenodd" clip-rule="evenodd" fill="#FFFFFF" stroke="#000000" stroke-width="4" stroke-miterlimit="10" d="
	M54,177.5H33c0,0-10.319-18.224-9.784-32.763s-13.294-14.538-4.784-42.198c0,0-11.702-19.504,8.156-10.993
	c0,0,14.613-14.958,40.411-17.73s46.113,2.423,58.525,14.687c0,0,12.395-13.268,20.914-11.141c0,0-3.439,8.527-1.765,14.184
	c0,0,20.567,13.546,23.05,24.504c0,0,8.043-1.731,10.993,0c0,0,14.17,25.496-50.717,45.354c0,0-2.121,6.305-2.121,16.096H106
	c0,0-6.956-11.093-16.779-9.713c0,0-29.298-1.064-34.618-2.482L54,177.5z"/>
<circle fill-rule="evenodd" clip-rule="evenodd" cx="146.438" cy="111.522" r="4.526"/>
<circle fill-rule="evenodd" clip-rule="evenodd" fill="#FFFFFF" stroke="#000000" stroke-width="4" stroke-miterlimit="10" cx="118.108" cy="179.14" r="21.892"/>
<circle fill-rule="evenodd" clip-rule="evenodd" fill="#FFFFFF" stroke="#000000" stroke-width="4" stroke-miterlimit="10" cx="41.108" cy="178.14" r="21.892"/>
<g>
	
		<ellipse fill-rule="evenodd" clip-rule="evenodd" fill="#FFFFFF" stroke="#000000" stroke-width="2.8149" stroke-miterlimit="10" cx="89.666" cy="39.309" rx="23.411" ry="23.765"/>
	<path fill-rule="evenodd" clip-rule="evenodd" d="M88.461,39.608c-6.653-3.771-8.137-6.146-6.946-10.955
		c1.087-4.387,4.454-6.511,10.406-6.49c0.224-0.716,0.458-1.468,0.673-2.154c0.911-0.814,1.797,0.146,1.701,1.721
		c-0.016,0.262-0.018,0.526-0.034,0.992c4.569,1.56,7.627,4.357,7.004,9.959c-2.124,0.094-3.686,0.078-4.032-2.816
		c-0.172-1.441-1.849-2.697-2.846-4.037c-0.318,0.119-0.635,0.238-0.953,0.359c-0.628,3.205-1.301,6.403-1.833,9.625
		c-0.067,0.406,0.51,1.057,0.943,1.383c0.705,0.529,1.559,0.847,2.312,1.318c4.213,2.634,5.266,5.311,3.96,9.993
		c-1.192,4.27-4.104,6.496-8.605,6.586c-0.781,0.017-1.561,0.067-2.287,0.099c-1.183,3.842-1.183,3.842-2.915,3.438
		c0.177-1.212,0.357-2.439,0.536-3.664c-0.17,0.149-0.339,0.3-0.51,0.45c-2.175-2.075-4.746-3.877-6.381-6.325
		c-1.035-1.549-0.672-4.06-0.99-6.572c1.721,0.348,2.784,0.562,4.048,0.819c-0.12,3.435,0.064,6.865,4.485,7.805
		C86.966,47.231,87.72,43.39,88.461,39.608z M90.681,40.892c-0.732,3.727-1.433,7.3-2.137,10.886
		c3.668,0.318,5.811-1.053,6.576-4.095C95.867,44.713,94.539,42.603,90.681,40.892z M91.228,25.769
		c-3.374-0.266-5.245,0.909-5.931,3.636c-0.648,2.578,0.735,4.658,4.043,5.984C89.97,32.176,90.597,28.98,91.228,25.769z"/>
</g>
<path fill-rule="evenodd" clip-rule="evenodd" fill="none" stroke="#000000" stroke-width="4" stroke-miterlimit="10" d="
	M57.793,86.775c0,0,21.289-9.735,45.574,0"/>
</svg>
